<svg width="61" height="59" viewBox="0 0 61 59" fill="none" xmlns="http://www.w3.org/2000/svg">
<path d="M9 17C13.4183 17 17 13.4183 17 9C17 4.58172 13.4183 1 9 1C4.58172 1 1 4.58172 1 9C1 13.4183 4.58172 17 9 17Z" stroke="black"/>
<path d="M52 17C56.4183 17 60 13.4183 60 9C60 4.58172 56.4183 1 52 1C47.5817 1 44 4.58172 44 9C44 13.4183 47.5817 17 52 17Z" stroke="black"/>
<path d="M30.5 58C44.031 58 55 47.031 55 33.5C55 19.969 44.031 9 30.5 9C16.969 9 6 19.969 6 33.5C6 47.031 16.969 58 30.5 58Z" stroke="black"/>
</svg>
