<svg width="40" height="40" viewBox="0 0 40 40" fill="none" xmlns="http://www.w3.org/2000/svg">
<circle cx="20.0769" cy="19.5384" r="19.5384" fill="white"/>
<path d="M22.592 12.3628V18.8523H21.1547V19.5735H22.592V26.063C22.592 26.3499 22.7057 26.6251 22.9078 26.8279C23.1099 27.0307 23.3841 27.1446 23.67 27.1446H24.7479V26.4237H23.67C23.4716 26.4237 23.3107 26.2622 23.3107 26.063V19.5735H24.7479V18.8525H23.3107V12.363C23.3107 12.1638 23.4716 12.0023 23.67 12.0023H24.7479V11.2814H23.67C23.3841 11.2814 23.1099 11.3953 22.9078 11.5981C22.7057 11.8009 22.592 12.0761 22.592 12.363V12.3628Z" fill="#3CACD7"/>
<path d="M29.4194 9.11792H26.5448C26.2589 9.11792 25.9847 9.23184 25.7825 9.43464C25.5803 9.63744 25.4668 9.91267 25.4668 10.1995V13.0838V13.0837C25.4668 13.3705 25.5803 13.6457 25.7825 13.8485C25.9847 14.0513 26.2589 14.1653 26.5448 14.1653H29.4194C29.7053 14.1653 29.9795 14.0513 30.1816 13.8485C30.3837 13.6457 30.4974 13.3705 30.4974 13.0837V10.1995C30.4974 9.91268 30.3837 9.63744 30.1816 9.43464C29.9795 9.23185 29.7053 9.11792 29.4194 9.11792V9.11792ZM28.7007 13.4443H27.2635C27.065 13.4443 26.9041 13.2828 26.9041 13.0837C26.9041 12.8846 27.065 12.7232 27.2635 12.7232H27.6228V11.0699L27.5175 11.1755C27.3764 11.312 27.1523 11.3101 27.0138 11.1709C26.8752 11.032 26.8732 10.8071 27.0093 10.6656L27.728 9.9445C27.8307 9.84144 27.9853 9.81066 28.1196 9.86649C28.2538 9.92217 28.3413 10.0536 28.3415 10.1995V12.7232H28.7007C28.8993 12.7232 29.06 12.8846 29.06 13.0837C29.06 13.2828 28.8993 13.4443 28.7007 13.4443L28.7007 13.4443Z" fill="#3CACD7"/>
<path d="M29.4194 16.6892H26.5448C26.2589 16.6892 25.9847 16.8031 25.7825 17.0059C25.5803 17.2087 25.4668 17.4839 25.4668 17.7708V20.6551V20.6549C25.4668 20.9418 25.5803 21.217 25.7825 21.4198C25.9847 21.6226 26.2589 21.7365 26.5448 21.7365H29.4194C29.7053 21.7365 29.9795 21.6226 30.1816 21.4198C30.3837 21.217 30.4974 20.9418 30.4974 20.6549V17.7708C30.4974 17.4839 30.3837 17.2087 30.1816 17.0059C29.9795 16.8031 29.7053 16.6892 29.4194 16.6892V16.6892ZM28.7007 20.2944C28.8992 20.2944 29.06 20.4559 29.06 20.6549C29.06 20.8541 28.8992 21.0155 28.7007 21.0155H27.2635C27.065 21.0155 26.9041 20.8541 26.9041 20.6549C26.9041 19.9338 27.3823 19.5733 27.7664 19.285C28.1336 19.0088 28.3413 18.8354 28.3413 18.4917H28.3415C28.3415 18.2927 28.1805 18.1313 27.982 18.1313C27.7837 18.1313 27.6228 18.2927 27.6228 18.4917C27.6228 18.6909 27.4618 18.8524 27.2635 18.8524C27.065 18.8524 26.9041 18.6909 26.9041 18.4917C26.9041 18.1053 27.1096 17.7483 27.4431 17.5551C27.7766 17.3619 28.1876 17.3619 28.521 17.5551C28.8546 17.7483 29.06 18.1053 29.06 18.4917C29.06 19.2128 28.5818 19.5733 28.1977 19.8617V19.8618C28.0186 19.9795 27.8598 20.1257 27.7273 20.2944L28.7007 20.2944Z" fill="#3CACD7"/>
<path d="M29.4194 24.2603H26.5448C26.2589 24.2603 25.9847 24.3742 25.7825 24.577C25.5803 24.7798 25.4668 25.0551 25.4668 25.3419V28.2262V28.2261C25.4668 28.5129 25.5803 28.7881 25.7825 28.9909C25.9847 29.1937 26.2589 29.3077 26.5448 29.3077H29.4194C29.7053 29.3077 29.9795 29.1937 30.1816 28.9909C30.3837 28.7881 30.4974 28.5129 30.4974 28.2261V25.3419C30.4974 25.0551 30.3837 24.7798 30.1816 24.577C29.9795 24.3742 29.7053 24.2603 29.4194 24.2603V24.2603ZM29.0602 27.5051H29.06C29.06 27.8915 28.8546 28.2485 28.521 28.4417C28.1876 28.635 27.7766 28.635 27.443 28.4417C27.1096 28.2485 26.9041 27.8915 26.9041 27.5051C26.9041 27.3059 27.065 27.1445 27.2635 27.1445C27.4618 27.1445 27.6228 27.3059 27.6228 27.5051C27.6228 27.6509 27.7103 27.7823 27.8446 27.8381C27.9789 27.8939 28.1335 27.8632 28.2362 27.7599C28.3389 27.6569 28.3697 27.5018 28.3141 27.367C28.2585 27.2323 28.1275 27.1445 27.982 27.1445C27.7837 27.1445 27.6228 26.9832 27.6228 26.784C27.6228 26.5848 27.7837 26.4235 27.982 26.4235C28.1275 26.4235 28.2585 26.3357 28.3141 26.2009C28.3697 26.0662 28.3389 25.9111 28.2362 25.808C28.1335 25.7048 27.9789 25.674 27.8446 25.7298C27.7103 25.7857 27.6228 25.9171 27.6228 26.0629C27.6228 26.262 27.4618 26.4235 27.2635 26.4235C27.065 26.4235 26.9041 26.262 26.9041 26.0629C26.9039 25.7069 27.0782 25.3734 27.3706 25.1714C27.6628 24.9694 28.0354 24.9247 28.3669 25.0517C28.6983 25.1788 28.9463 25.4616 29.0298 25.8075C29.1133 26.1537 29.0217 26.5188 28.7848 26.784C28.9623 26.9819 29.0603 27.2387 29.06 27.5051L29.0602 27.5051Z" fill="#3CACD7"/>
<path d="M20.0768 11.6415H10.0158C9.81729 11.6415 9.65637 11.803 9.65637 12.002V24.2603H11.392C11.5986 24.2606 11.7969 24.343 11.943 24.4897C12.0892 24.6363 12.1714 24.8352 12.1717 25.0427V26.784H20.0768C20.1721 26.784 20.2634 26.7459 20.3309 26.6783C20.3983 26.6107 20.4361 26.519 20.4361 26.4235V12.002C20.4361 11.9065 20.3983 11.8147 20.3309 11.7471C20.2634 11.6795 20.1721 11.6415 20.0768 11.6415L20.0768 11.6415ZM18.6395 22.4575H11.4529C11.2544 22.4575 11.0936 22.296 11.0936 22.097C11.0936 21.8978 11.2544 21.7364 11.4529 21.7364H18.6395C18.8379 21.7364 18.9988 21.8978 18.9988 22.097C18.9988 22.296 18.8379 22.4575 18.6395 22.4575ZM18.6395 19.9338H11.4529C11.2544 19.9338 11.0936 19.7723 11.0936 19.5732C11.0936 19.3741 11.2544 19.2127 11.4529 19.2127H18.6395C18.8379 19.2127 18.9988 19.3741 18.9988 19.5732C18.9988 19.7723 18.8379 19.9338 18.6395 19.9338ZM18.6395 17.4101L11.4529 17.41C11.2544 17.41 11.0936 17.2487 11.0936 17.0495C11.0936 16.8503 11.2544 16.689 11.4529 16.689H18.6395C18.8379 16.689 18.9988 16.8503 18.9988 17.0495C18.9988 17.2487 18.8379 17.41 18.6395 17.41V17.4101ZM18.6395 14.8865L11.4529 14.8863C11.2544 14.8863 11.0936 14.7249 11.0936 14.5258C11.0936 14.3267 11.2544 14.1652 11.4529 14.1652H18.6395C18.8379 14.1652 18.9988 14.3267 18.9988 14.5258C18.9988 14.7249 18.8379 14.8863 18.6395 14.8863V14.8865Z" fill="#3CACD7"/>
<path d="M11.3918 24.9811H10.1643L11.4528 26.274V25.0426C11.4534 25.0261 11.4473 25.0101 11.4357 24.9985C11.424 24.9869 11.4082 24.9805 11.3918 24.9811L11.3918 24.9811Z" fill="#3CACD7"/>
</svg>
