<?xml version="1.0" encoding="UTF-8"?>
<svg xmlns="http://www.w3.org/2000/svg" xmlns:xlink="http://www.w3.org/1999/xlink" width="60px" height="45px" viewBox="0 0 59 45" version="1.1">
<g id="surface1">
<path style=" stroke:none;fill-rule:nonzero;fill:rgb(0%,0%,0%);fill-opacity:1;" d="M 9.59375 2.054688 C 9.132812 2.226562 8.484375 2.585938 8.160156 2.839844 C 7.640625 3.253906 7.585938 3.285156 7.585938 3.027344 C 7.585938 2.871094 7.390625 2.570312 7.148438 2.371094 C 6.519531 1.828125 5.535156 1.839844 4.929688 2.414062 C 4.550781 2.769531 4.496094 2.925781 4.496094 3.582031 C 4.496094 3.996094 4.566406 4.738281 4.648438 5.238281 C 4.789062 6.082031 4.777344 6.226562 4.4375 7.152344 C 4.144531 7.953125 4.074219 8.410156 4.074219 9.421875 C 4.074219 10.121094 4.019531 10.851562 3.933594 11.050781 C 3.777344 11.464844 3.949219 12.078125 4.4375 12.847656 C 4.609375 13.121094 4.789062 13.621094 4.832031 13.949219 C 4.875 14.289062 5.027344 14.761719 5.15625 15.019531 C 5.464844 15.648438 6.488281 16.574219 6.941406 16.617188 C 7.136719 16.632812 7.417969 16.761719 7.542969 16.875 C 8.019531 17.304688 9.046875 17.703125 9.652344 17.703125 C 10.351562 17.703125 11.195312 17.332031 11.324219 16.960938 C 11.363281 16.816406 11.53125 16.703125 11.703125 16.703125 C 11.882812 16.703125 12.164062 16.605469 12.332031 16.476562 C 12.515625 16.347656 12.855469 16.273438 13.175781 16.304688 C 13.613281 16.332031 13.683594 16.390625 13.652344 16.632812 C 13.625 16.789062 13.625 17.1875 13.625 17.515625 C 13.710938 19.601562 13.5 25.46875 13.332031 26.054688 C 13.132812 26.699219 12.023438 29.125 11.40625 30.195312 C 10.480469 31.824219 10.339844 32.078125 10 32.695312 C 9.820312 33.050781 9.609375 33.394531 9.550781 33.480469 C 9.339844 33.734375 7.921875 36.734375 7.65625 37.476562 C 7.375 38.246094 6.839844 39.175781 6.617188 39.332031 C 6.53125 39.375 6.109375 39.519531 5.675781 39.632812 C 4.648438 39.902344 4.1875 40.246094 3.863281 40.972656 C 3.625 41.515625 3.609375 41.617188 3.808594 41.960938 C 4.085938 42.472656 4.691406 42.746094 5.648438 42.773438 C 6.082031 42.800781 6.558594 42.871094 6.699219 42.945312 C 6.839844 43.03125 7.515625 43.085938 8.203125 43.101562 C 9.160156 43.101562 9.566406 43.042969 9.972656 42.828125 C 10.84375 42.375 11.082031 42.015625 12.292969 39.1875 C 12.488281 38.71875 12.796875 38.105469 12.980469 37.832031 C 14.0625 36.164062 14.707031 35.136719 14.933594 34.691406 C 15.085938 34.421875 15.324219 34.019531 15.464844 33.808594 C 15.621094 33.605469 15.734375 33.394531 15.734375 33.351562 C 15.734375 33.308594 16.027344 32.808594 16.378906 32.238281 C 17.292969 30.792969 18.21875 28.996094 18.332031 28.4375 C 18.472656 27.753906 18.683594 27.882812 18.683594 28.667969 C 18.683594 29.039062 18.753906 29.867188 18.824219 30.496094 C 18.964844 31.636719 19.21875 34.535156 19.34375 36.519531 C 19.429688 37.761719 19.371094 37.847656 17.953125 38.789062 C 16.871094 39.503906 16.4375 40.003906 16.4375 40.546875 C 16.4375 41.132812 16.886719 41.445312 17.742188 41.472656 C 18.148438 41.488281 18.628906 41.574219 18.808594 41.671875 C 18.992188 41.773438 19.300781 41.832031 19.5 41.789062 C 19.679688 41.746094 20.074219 41.816406 20.355469 41.929688 C 21.226562 42.300781 22.601562 41.988281 23.347656 41.230469 C 23.613281 40.960938 23.628906 40.832031 23.542969 39.273438 C 23.5 38.363281 23.417969 37.078125 23.375 36.433594 C 23.261719 34.976562 23.515625 32.523438 23.910156 31.335938 C 24.089844 30.75 24.230469 29.78125 24.316406 28.28125 C 24.441406 26.242188 24.652344 24.300781 24.75 24.199219 C 24.78125 24.171875 25.117188 24.214844 25.496094 24.300781 C 27.757812 24.726562 31.566406 24.484375 34.191406 23.757812 C 35.046875 23.511719 35.105469 23.554688 35.738281 24.898438 C 36.269531 26.027344 36.679688 26.625 37.71875 27.8125 C 38.109375 28.269531 38.574219 28.925781 38.769531 29.296875 L 39.109375 29.953125 L 39.363281 29.539062 C 39.5 29.308594 39.726562 29.125 39.867188 29.125 C 40.527344 29.125 41.582031 27.9375 41.582031 27.183594 C 41.582031 26.984375 41.484375 27.039062 41.160156 27.425781 C 40.683594 28.023438 39.882812 28.453125 39.292969 28.4375 C 38.8125 28.425781 37.789062 27.78125 37.789062 27.496094 C 37.789062 27.398438 37.929688 27.195312 38.109375 27.070312 C 38.40625 26.839844 38.40625 26.839844 37.84375 26.910156 C 37.324219 26.984375 37.226562 26.941406 36.890625 26.554688 C 36.425781 25.984375 36.398438 25.640625 36.847656 25.785156 C 37.378906 25.984375 38.953125 25.871094 39.65625 25.597656 C 40.078125 25.441406 40.429688 25.183594 40.570312 24.957031 C 40.921875 24.355469 40.667969 24.3125 40.148438 24.882812 C 39.558594 25.511719 38.882812 25.625 37.226562 25.371094 C 36.171875 25.210938 36.003906 25.140625 35.820312 24.8125 C 35.570312 24.339844 35.710938 24.171875 36.171875 24.382812 C 36.371094 24.484375 37 24.554688 37.550781 24.554688 C 38.492188 24.554688 38.601562 24.527344 39.050781 24.113281 C 39.320312 23.871094 39.433594 23.714844 39.292969 23.757812 C 39.152344 23.800781 38.601562 23.941406 38.054688 24.085938 C 37.15625 24.300781 36.988281 24.300781 36.269531 24.113281 C 35.765625 23.96875 35.46875 23.828125 35.46875 23.699219 C 35.46875 23.285156 36.269531 23.070312 38.140625 22.984375 C 39.671875 22.914062 40.0625 22.84375 40.582031 22.570312 C 41.382812 22.144531 41.46875 22.257812 41.707031 23.871094 C 41.902344 25.242188 42.3125 26.855469 42.734375 27.980469 C 43.085938 28.953125 43.210938 30.78125 43.015625 31.992188 C 42.914062 32.492188 42.816406 33.351562 42.761719 33.90625 C 42.648438 35.234375 42.523438 35.664062 41.777344 37.332031 C 41.664062 37.574219 41.285156 38.089844 40.933594 38.476562 L 40.289062 39.1875 L 40.105469 38.832031 L 39.921875 38.488281 L 39.613281 39.019531 C 39.261719 39.601562 39.050781 39.660156 38.210938 39.316406 C 37.832031 39.160156 37.621094 38.976562 37.5625 38.734375 C 37.464844 38.347656 37.605469 36.992188 37.773438 36.761719 C 37.832031 36.691406 37.984375 36.363281 38.097656 36.046875 C 38.222656 35.734375 38.503906 35.0625 38.742188 34.550781 C 39.375 33.136719 39.472656 32.851562 39.472656 32.480469 C 39.472656 32.109375 39.921875 31.765625 40.230469 31.878906 C 40.441406 31.964844 41.382812 31.4375 41.257812 31.324219 C 41.214844 31.28125 40.894531 31.351562 40.542969 31.464844 C 39.585938 31.792969 39.5 31.765625 39.363281 31.082031 L 39.222656 30.480469 L 39.207031 31.28125 C 39.191406 32.308594 38.925781 33.179688 38.011719 35.234375 C 36.578125 38.445312 36.890625 39.875 39.011719 39.875 C 40.316406 39.875 41.554688 38.789062 42.453125 36.832031 C 42.972656 35.707031 43.125 35.050781 43.140625 33.765625 C 43.152344 32.652344 43.167969 32.636719 43.28125 33.335938 C 43.351562 33.722656 43.40625 34.664062 43.433594 35.40625 C 43.449219 36.675781 43.433594 36.820312 43.027344 37.617188 C 42.507812 38.648438 42.171875 39.03125 41.453125 39.390625 C 40.78125 39.746094 40.429688 40.289062 40.402344 40.988281 C 40.386719 41.671875 40.527344 41.816406 41.46875 42.085938 C 42.394531 42.359375 43.644531 42.359375 44.152344 42.085938 C 44.320312 42 44.574219 42.015625 44.867188 42.117188 C 45.824219 42.429688 46.355469 41.832031 46.355469 40.445312 C 46.355469 40.03125 46.484375 39.589844 46.765625 39.074219 C 47.328125 38.0625 47.550781 37.320312 47.875 35.40625 C 48.113281 34.050781 48.140625 33.4375 48.070312 31.867188 C 48.015625 30.835938 48 29.980469 48.058594 29.980469 C 48.097656 29.980469 48.238281 30.324219 48.394531 30.738281 C 49.179688 32.992188 50.640625 35.09375 52.074219 36.0625 C 53.128906 36.777344 54.042969 36.71875 54.898438 35.878906 C 55.558594 35.234375 55.769531 34.664062 55.769531 33.59375 C 55.769531 31.835938 54.757812 30.265625 53.632812 30.265625 C 52.761719 30.265625 52.480469 31.109375 52.875 32.449219 C 53.058594 33.066406 53.058594 33.121094 52.832031 33.121094 C 52.539062 33.121094 51.949219 32.507812 51.652344 31.894531 C 51.21875 31.023438 50.320312 27.113281 50.21875 25.625 C 50.207031 25.382812 50.09375 24.3125 49.96875 23.226562 C 49.589844 19.945312 49.519531 16.832031 49.785156 15.433594 C 50.207031 13.207031 50.066406 11.421875 49.292969 9.523438 C 48.546875 7.679688 45.921875 5.382812 43.253906 4.253906 C 41.3125 3.425781 40.878906 3.371094 37.71875 3.484375 C 36.171875 3.527344 34.570312 3.613281 34.179688 3.65625 L 33.433594 3.753906 L 34.050781 4.15625 C 34.921875 4.710938 35.765625 5.839844 36.128906 6.96875 C 36.398438 7.796875 36.441406 8.179688 36.410156 9.980469 C 36.382812 12.007812 36.398438 12.050781 36.789062 12.761719 C 37.480469 14.019531 37.589844 14.746094 37.394531 16.746094 C 37.296875 17.703125 37.226562 18.746094 37.226562 19.046875 C 37.226562 19.628906 37.113281 20.042969 36.609375 21.457031 C 36.371094 22.128906 36.171875 22.398438 35.570312 22.871094 C 34.878906 23.414062 34.78125 23.457031 34.304688 23.328125 C 33.980469 23.242188 33.769531 23.101562 33.742188 22.941406 C 33.714844 22.800781 33.953125 22.027344 34.277344 21.242188 C 34.597656 20.457031 34.839844 19.789062 34.808594 19.757812 C 34.78125 19.730469 34.515625 20.273438 34.207031 20.957031 C 33.65625 22.242188 32.746094 23.597656 32.28125 23.855469 C 32.140625 23.941406 31.691406 23.984375 31.285156 23.957031 C 30.414062 23.898438 30.285156 23.640625 30.804688 22.941406 C 30.988281 22.6875 31.214844 22.328125 31.3125 22.128906 L 31.480469 21.773438 L 31.226562 22.128906 C 30.328125 23.414062 29.164062 24.339844 28.753906 24.097656 C 28.347656 23.871094 28.488281 23.355469 29.078125 22.757812 C 30.074219 21.773438 31.171875 19.84375 31.453125 18.558594 C 31.605469 17.847656 31.4375 17.972656 31.1875 18.746094 C 30.960938 19.460938 30.003906 20.871094 29.191406 21.699219 C 28.417969 22.484375 27.996094 23.101562 27.882812 23.597656 C 27.785156 23.96875 27.742188 23.984375 26.875 23.984375 C 26.367188 23.984375 25.566406 23.886719 25.089844 23.757812 C 22.882812 23.171875 21.199219 24.027344 19.5 26.613281 C 19.246094 27.011719 18.9375 27.355469 18.824219 27.398438 C 18.65625 27.441406 18.640625 27.410156 18.769531 27.253906 C 18.867188 27.140625 19.046875 26.667969 19.175781 26.199219 C 19.316406 25.726562 19.46875 25.210938 19.527344 25.054688 C 19.597656 24.898438 19.75 24.46875 19.878906 24.097656 C 20.089844 23.542969 20.1875 23.414062 20.566406 23.34375 C 21.773438 23.101562 22.039062 22.785156 23.320312 20.128906 C 24.246094 18.230469 24.667969 17.089844 25.019531 15.5625 C 25.171875 14.890625 25.480469 13.933594 25.707031 13.421875 C 25.933594 12.90625 26.226562 12.105469 26.351562 11.636719 C 26.789062 10.050781 26.578125 7.195312 25.933594 5.925781 C 25.804688 5.683594 25.707031 5.3125 25.707031 5.082031 C 25.707031 4.753906 25.75 4.695312 25.960938 4.78125 C 26.085938 4.839844 26.324219 4.898438 26.480469 4.925781 C 26.875 4.953125 27.324219 5.851562 27.671875 7.28125 C 28.53125 10.894531 28.460938 10.679688 28.65625 10.207031 C 28.742188 9.964844 28.839844 9.265625 28.839844 8.636719 C 28.867188 7.710938 28.8125 7.382812 28.542969 6.882812 C 28.375 6.554688 28.109375 6.023438 27.953125 5.726562 C 27.535156 4.855469 27.070312 4.570312 26.144531 4.570312 C 24.792969 4.554688 23.671875 4.324219 23.09375 3.953125 C 22.011719 3.226562 20.410156 2.8125 18.65625 2.796875 C 17.585938 2.785156 17.40625 2.742188 17.097656 2.457031 C 16.644531 2.011719 15.886719 1.914062 15.339844 2.199219 C 14.933594 2.414062 14.863281 2.398438 13.992188 2.070312 C 12.714844 1.585938 10.859375 1.585938 9.59375 2.054688 Z M 13.613281 2.355469 C 14.59375 2.613281 14.679688 2.726562 14.328125 3.183594 L 14.035156 3.554688 L 13.585938 3.296875 C 12.867188 2.871094 11.855469 2.785156 11.40625 3.082031 C 11.195312 3.226562 10.871094 3.371094 10.675781 3.398438 C 10.140625 3.46875 10.15625 3.570312 10.691406 3.582031 C 11.167969 3.582031 11.914062 3.824219 11.53125 3.839844 C 11.210938 3.855469 11.421875 3.984375 11.941406 4.070312 C 12.207031 4.113281 12.742188 4.3125 13.121094 4.511719 C 13.5 4.695312 13.851562 4.824219 13.894531 4.769531 C 14.0625 4.597656 13.203125 4.027344 12.65625 3.925781 C 12.222656 3.855469 12.082031 3.769531 12.082031 3.554688 C 12.082031 3.226562 12.125 3.226562 13.007812 3.496094 C 14.089844 3.824219 14.300781 3.785156 14.945312 3.070312 C 15.4375 2.527344 15.621094 2.425781 16.054688 2.425781 C 17.082031 2.425781 17.460938 3.46875 16.84375 4.625 C 16.578125 5.152344 16.5625 5.195312 16.785156 6.082031 C 16.957031 6.765625 16.96875 7.125 16.871094 7.523438 C 16.800781 7.824219 16.746094 8.996094 16.746094 10.136719 L 16.757812 12.207031 L 16.226562 13.277344 C 15.648438 14.449219 14.625 15.777344 14.1875 15.917969 C 14.035156 15.960938 13.695312 15.945312 13.429688 15.875 C 13.023438 15.746094 12.839844 15.789062 12.292969 16.089844 C 11.925781 16.273438 11.601562 16.402344 11.5625 16.359375 C 11.449219 16.261719 11.660156 15.703125 11.8125 15.703125 C 11.882812 15.703125 11.941406 15.605469 11.941406 15.488281 C 11.941406 15.289062 11.882812 15.289062 11.433594 15.488281 C 10.464844 15.902344 9.933594 15.660156 9.75 14.746094 C 9.664062 14.332031 9.707031 14.277344 10.199219 14.019531 C 10.886719 13.664062 11.617188 12.890625 11.433594 12.71875 C 11.363281 12.648438 10.972656 12.648438 10.507812 12.75 C 9.761719 12.878906 9.652344 12.863281 8.976562 12.519531 C 8.261719 12.136719 7.921875 12.136719 8.0625 12.507812 C 8.121094 12.664062 7.980469 12.707031 7.472656 12.71875 L 6.8125 12.734375 L 7.542969 12.878906 C 8.132812 12.992188 8.34375 13.105469 8.597656 13.460938 C 8.765625 13.71875 8.992188 13.976562 9.089844 14.035156 C 9.382812 14.21875 9.3125 15.105469 9.003906 15.277344 C 8.554688 15.519531 8.050781 15.433594 7.613281 15.0625 C 7.136719 14.648438 6.953125 14.777344 7.164062 15.347656 C 7.375 15.890625 7.332031 16.273438 7.078125 16.273438 C 6.96875 16.273438 6.53125 15.976562 6.125 15.617188 C 5.421875 15.003906 5.367188 14.917969 5.226562 14.046875 C 5.128906 13.476562 4.917969 12.847656 4.648438 12.421875 C 4.1875 11.664062 4.117188 11.292969 4.355469 10.835938 C 4.578125 10.4375 4.734375 10.507812 4.832031 11.035156 C 4.875 11.308594 5.015625 11.636719 5.140625 11.792969 C 5.351562 12.0625 5.367188 12.0625 5.269531 11.777344 C 5.058594 11.148438 5.042969 9.578125 5.253906 8.421875 C 5.378906 7.679688 5.410156 7.152344 5.339844 7.082031 C 5.15625 6.882812 5.140625 6.925781 4.875 8.335938 C 4.75 9.039062 4.566406 9.679688 4.480469 9.765625 C 4.214844 10.023438 4.4375 8.378906 4.832031 7.136719 C 5.167969 6.082031 5.167969 6.023438 4.972656 4.855469 C 4.679688 3.125 4.859375 2.570312 5.84375 2.371094 C 6.699219 2.183594 7.179688 2.597656 7.359375 3.667969 C 7.390625 3.882812 7.429688 4.097656 7.429688 4.140625 C 7.445312 4.167969 7.78125 3.882812 8.191406 3.484375 C 8.992188 2.699219 9.339844 2.5 10.183594 2.296875 C 11.054688 2.097656 12.769531 2.128906 13.613281 2.355469 Z M 18.457031 3.742188 C 19.21875 4.367188 19.667969 5.453125 19.667969 6.636719 C 19.667969 7.152344 19.722656 7.566406 19.792969 7.566406 C 20.003906 7.566406 20.058594 7.238281 20.03125 6.109375 C 20.003906 5.269531 19.933594 4.941406 19.695312 4.597656 C 19.527344 4.367188 19.386719 4.097656 19.386719 4.027344 C 19.386719 3.941406 19.21875 3.742188 19.007812 3.570312 L 18.613281 3.269531 L 18.964844 3.355469 C 19.679688 3.539062 20.496094 4.367188 20.550781 4.953125 C 20.550781 5.125 20.621094 5.226562 20.691406 5.183594 C 20.820312 5.097656 20.691406 4.125 20.539062 3.996094 C 20.480469 3.953125 20.355469 3.8125 20.242188 3.667969 C 20.089844 3.46875 20.089844 3.425781 20.242188 3.425781 C 20.691406 3.425781 21.632812 4.597656 21.632812 5.140625 C 21.632812 5.324219 21.691406 5.410156 21.789062 5.339844 C 22.027344 5.195312 21.828125 3.824219 21.535156 3.597656 C 21.308594 3.441406 21.308594 3.425781 21.535156 3.425781 C 21.816406 3.425781 22.449219 3.8125 22.730469 4.140625 C 23.320312 4.855469 23.488281 5.453125 23.488281 6.910156 C 23.488281 8.367188 23.289062 9.9375 23.011719 10.851562 C 22.28125 13.207031 21.660156 14.546875 20.410156 16.445312 C 19.695312 17.546875 19.148438 18.503906 19.1875 18.589844 C 19.316406 18.789062 20.160156 17.761719 20.578125 16.859375 C 20.789062 16.417969 21.097656 15.863281 21.28125 15.632812 C 21.898438 14.777344 23.375 11.449219 23.53125 10.492188 C 23.699219 9.59375 24.300781 9.09375 24.300781 9.863281 C 24.300781 10.023438 24.371094 10.109375 24.441406 10.066406 C 24.667969 9.921875 24.613281 8.609375 24.300781 6.925781 C 23.964844 5.082031 23.964844 4.996094 24.21875 4.996094 C 24.582031 4.996094 25.398438 6.082031 25.609375 6.867188 C 26.113281 8.679688 26.199219 9.78125 25.960938 11.265625 C 25.820312 12.0625 25.539062 13.0625 25.285156 13.632812 C 25.03125 14.191406 24.710938 15.246094 24.554688 15.988281 C 24.191406 17.761719 23.910156 18.429688 22.96875 19.914062 C 22.546875 20.585938 22.039062 21.457031 21.84375 21.84375 C 21.4375 22.65625 21.027344 22.984375 20.425781 22.984375 C 19.808594 22.984375 19.722656 23.128906 19.148438 25.085938 C 19.007812 25.582031 18.851562 25.984375 18.796875 25.984375 C 18.726562 25.984375 18.683594 26.097656 18.683594 26.226562 C 18.667969 26.554688 18.191406 28.011719 17.925781 28.523438 C 17.8125 28.738281 17.574219 29.238281 17.390625 29.652344 C 17.066406 30.394531 16.828125 30.550781 16.746094 30.039062 C 16.660156 29.539062 16.394531 29.125 16.125 29.125 C 15.914062 29.125 15.886719 29.167969 16.015625 29.394531 C 16.085938 29.550781 16.15625 29.980469 16.15625 30.335938 C 16.15625 30.695312 16.210938 31.109375 16.28125 31.238281 C 16.367188 31.410156 16.253906 31.707031 15.859375 32.335938 C 15.566406 32.808594 15.269531 33.292969 15.226562 33.40625 C 15.171875 33.523438 14.976562 33.863281 14.792969 34.164062 L 14.453125 34.707031 L 13.625 34.605469 C 13.164062 34.550781 12.785156 34.550781 12.785156 34.605469 C 12.785156 34.648438 13.007812 34.90625 13.289062 35.164062 L 13.792969 35.632812 L 13.554688 36.132812 C 13.414062 36.40625 13.132812 36.875 12.921875 37.191406 C 12.402344 37.960938 11.882812 39.03125 11.449219 40.203125 C 10.957031 41.546875 10.296875 42.316406 9.398438 42.617188 C 8.511719 42.914062 8.332031 42.789062 8.570312 42.058594 C 8.792969 41.359375 9.0625 41.117188 9.636719 41.117188 C 9.902344 41.117188 10.113281 41.046875 10.113281 40.972656 C 10.113281 40.886719 9.832031 40.832031 9.480469 40.832031 C 8.949219 40.832031 8.808594 40.886719 8.539062 41.257812 C 8.246094 41.671875 8.21875 41.6875 8.121094 41.402344 C 7.980469 41.003906 7.628906 40.902344 7.109375 41.089844 C 6.828125 41.203125 6.660156 41.214844 6.628906 41.117188 C 6.601562 41.046875 6.378906 40.988281 6.140625 40.988281 L 5.6875 41.003906 L 6.109375 41.101562 C 6.433594 41.175781 6.519531 41.273438 6.488281 41.472656 C 6.460938 41.628906 6.433594 41.886719 6.40625 42.042969 C 6.378906 42.289062 6.25 42.332031 5.605469 42.375 C 4.691406 42.414062 4.1875 42.144531 4.4375 41.730469 C 4.523438 41.585938 4.789062 41.429688 5.042969 41.386719 C 5.296875 41.332031 5.535156 41.257812 5.578125 41.203125 C 5.730469 41.046875 4.777344 41.101562 4.46875 41.273438 C 4.03125 41.515625 4.003906 41.316406 4.410156 40.773438 C 4.71875 40.359375 4.917969 40.246094 5.617188 40.101562 C 6.828125 39.859375 7.25 39.375 8.34375 36.90625 C 8.835938 35.804688 9.453125 34.492188 9.734375 33.976562 C 10.015625 33.464844 10.324219 32.894531 10.4375 32.695312 C 10.550781 32.492188 11 31.707031 11.433594 30.921875 C 11.882812 30.152344 12.488281 29.011719 12.796875 28.394531 L 13.359375 27.269531 L 15.003906 26.441406 C 16.085938 25.898438 16.660156 25.527344 16.6875 25.355469 C 16.730469 25.140625 16.644531 25.167969 16.125 25.527344 C 15.523438 25.953125 14.566406 26.339844 13.90625 26.425781 C 13.613281 26.46875 13.554688 26.425781 13.585938 26.125 C 13.667969 25.296875 13.78125 25.125 14.453125 24.769531 C 14.835938 24.585938 15.226562 24.328125 15.355469 24.214844 C 15.464844 24.097656 15.789062 23.84375 16.070312 23.640625 C 17.292969 22.800781 19.046875 21.214844 19.316406 20.699219 C 19.429688 20.5 19.738281 20.101562 20.003906 19.800781 C 20.285156 19.5 20.507812 19.203125 20.507812 19.128906 C 20.507812 18.960938 19.316406 20.230469 18.683594 21.085938 C 18.066406 21.898438 17.027344 22.742188 15.984375 23.242188 C 15.605469 23.414062 15.03125 23.699219 14.679688 23.871094 C 14.328125 24.042969 14.019531 24.15625 13.992188 24.113281 C 13.964844 24.085938 13.90625 23.640625 13.851562 23.128906 L 13.765625 22.199219 L 14.582031 21.34375 C 15.015625 20.871094 15.636719 20.359375 15.945312 20.214844 C 17.039062 19.6875 17.785156 18.917969 18.191406 17.886719 C 18.558594 16.976562 19.1875 15.71875 19.652344 14.992188 C 19.792969 14.789062 19.976562 14.449219 20.074219 14.21875 C 20.4375 13.335938 19.820312 14.148438 19.230469 15.320312 C 18.316406 17.117188 18.078125 17.433594 17.054688 18.203125 C 16.535156 18.589844 15.566406 19.445312 14.917969 20.101562 L 13.753906 21.285156 L 13.835938 19.957031 C 13.90625 18.902344 13.992188 18.589844 14.203125 18.386719 C 14.539062 18.101562 14.539062 17.988281 14.214844 17.988281 C 13.34375 17.988281 13.652344 17.089844 14.988281 15.734375 C 15.59375 15.117188 16.15625 14.375 16.507812 13.707031 L 17.054688 12.636719 L 17.167969 9.992188 C 17.222656 8.539062 17.308594 7.082031 17.347656 6.738281 C 17.417969 6.339844 17.390625 6.140625 17.292969 6.140625 C 17.082031 6.140625 17.097656 4.898438 17.292969 4.769531 C 17.503906 4.640625 17.898438 5.152344 18.375 6.140625 C 18.726562 6.882812 18.753906 7.023438 18.710938 8.707031 C 18.683594 10.664062 18.558594 11.378906 17.996094 12.976562 C 17.699219 13.847656 17.515625 14.121094 16.996094 14.535156 C 15.535156 15.71875 14.105469 17.53125 14.414062 17.816406 C 14.46875 17.875 14.539062 17.816406 14.582031 17.703125 C 14.664062 17.476562 15.085938 17.03125 16.828125 15.449219 C 17.742188 14.605469 17.996094 14.289062 18.164062 13.734375 C 18.277344 13.363281 18.5 12.71875 18.667969 12.292969 C 19.160156 10.964844 19.414062 7.539062 19.078125 6.554688 C 18.878906 5.953125 18.316406 5.054688 17.8125 4.496094 C 17.347656 3.996094 17.277344 3.285156 17.671875 3.285156 C 17.796875 3.285156 18.164062 3.484375 18.457031 3.742188 Z M 36.425781 3.953125 C 36.960938 4.539062 37.507812 5.253906 37.507812 5.382812 C 37.507812 5.46875 37.660156 5.695312 37.859375 5.910156 C 38.265625 6.367188 38.910156 7.59375 38.910156 7.921875 C 38.910156 8.25 39.320312 8.996094 39.488281 8.996094 C 39.570312 8.996094 39.628906 8.707031 39.601562 8.308594 C 39.570312 7.636719 39.304688 7.039062 38.421875 5.640625 C 38.167969 5.238281 37.941406 4.769531 37.902344 4.570312 C 37.859375 4.367188 37.800781 4.113281 37.773438 3.996094 C 37.730469 3.824219 37.886719 3.769531 38.449219 3.742188 C 39.164062 3.699219 39.191406 3.710938 39.515625 4.238281 C 40.078125 5.140625 40.695312 6.46875 40.808594 6.996094 C 40.863281 7.265625 41.089844 7.722656 41.300781 7.996094 C 41.566406 8.351562 41.707031 8.722656 41.761719 9.28125 C 41.863281 10.277344 42.15625 11.277344 42.367188 11.277344 C 42.550781 11.277344 42.464844 9.367188 42.269531 8.964844 C 42.199219 8.835938 42.144531 8.566406 42.144531 8.367188 C 42.144531 8.167969 42.085938 7.964844 42.003906 7.921875 C 41.933594 7.878906 41.863281 7.695312 41.863281 7.523438 C 41.863281 7.339844 41.777344 7.082031 41.664062 6.925781 C 41.566406 6.765625 41.171875 6.066406 40.824219 5.382812 C 40.316406 4.425781 40.191406 4.070312 40.316406 3.925781 C 40.542969 3.640625 41.230469 4.039062 41.679688 4.726562 C 41.875 5.023438 42.085938 5.28125 42.144531 5.28125 C 42.253906 5.28125 42.703125 6.28125 43.152344 7.496094 C 43.308594 7.921875 43.40625 8.59375 43.40625 9.207031 C 43.421875 10.335938 43.5625 10.25 43.84375 8.953125 C 43.996094 8.195312 43.996094 8.050781 43.6875 7.167969 C 43.503906 6.636719 43.324219 6.140625 43.265625 6.066406 C 43.210938 5.980469 43.054688 5.609375 42.929688 5.238281 C 42.59375 4.3125 42.761719 4.140625 43.605469 4.570312 C 44.09375 4.824219 44.265625 4.996094 44.335938 5.339844 C 44.375 5.582031 44.574219 6.253906 44.753906 6.824219 C 45.148438 8.023438 45.191406 9.449219 44.882812 10.351562 C 44.644531 11.035156 44.601562 13.675781 44.824219 14.175781 C 44.9375 14.417969 44.910156 14.875 44.753906 15.933594 C 44.476562 17.746094 44.039062 20.230469 43.898438 20.757812 C 43.828125 21.03125 43.84375 21.144531 43.925781 21.085938 C 44.011719 21.03125 44.152344 20.585938 44.234375 20.101562 C 44.335938 19.601562 44.476562 18.917969 44.53125 18.558594 C 44.601562 18.203125 44.785156 17.273438 44.953125 16.488281 C 45.289062 14.820312 45.304688 14.605469 45.164062 13.5625 C 45.09375 12.976562 45.136719 12.40625 45.359375 11.351562 C 45.527344 10.578125 45.65625 9.707031 45.65625 9.421875 C 45.65625 8.75 45.316406 6.996094 45.121094 6.609375 C 44.925781 6.253906 44.894531 5.425781 45.078125 5.425781 C 45.332031 5.425781 45.9375 6.023438 45.9375 6.28125 C 45.9375 6.425781 46.105469 7.066406 46.316406 7.710938 C 46.679688 8.835938 46.679688 8.878906 46.457031 9.535156 C 46.132812 10.464844 46.007812 11.621094 46.203125 11.933594 C 46.328125 12.164062 46.34375 12.121094 46.355469 11.664062 C 46.355469 11.078125 46.582031 9.90625 46.765625 9.566406 C 46.835938 9.4375 46.933594 9.136719 46.976562 8.894531 C 47.117188 8.25 47.410156 8.039062 47.621094 8.421875 C 47.886719 8.9375 47.859375 10.566406 47.578125 11.179688 C 47.4375 11.476562 47.285156 11.964844 47.242188 12.25 C 47.199219 12.535156 47.046875 13.019531 46.890625 13.320312 C 46.75 13.605469 46.609375 14.21875 46.566406 14.675781 C 46.386719 17.046875 46.0625 18.875 45.640625 19.757812 C 45.359375 20.359375 45.445312 20.816406 45.726562 20.257812 C 45.9375 19.859375 46.582031 17.316406 46.695312 16.488281 C 46.835938 15.375 47.453125 12.636719 47.675781 12.078125 C 47.929688 11.449219 48.015625 11.121094 48.226562 9.878906 C 48.308594 9.394531 48.4375 8.996094 48.492188 8.996094 C 48.675781 8.996094 49.109375 9.992188 49.378906 11.023438 C 49.785156 12.59375 49.628906 14.734375 48.84375 18.132812 C 47.972656 21.898438 47.480469 24.457031 47.480469 25.210938 C 47.480469 25.570312 47.398438 26.054688 47.285156 26.324219 C 47.003906 27.011719 46.257812 27.796875 45.710938 28.011719 C 45.234375 28.183594 45.078125 28.394531 45.414062 28.425781 C 45.90625 28.46875 46.484375 28.351562 46.945312 28.109375 C 47.621094 27.753906 47.621094 27.753906 47.621094 28.3125 C 47.621094 29.238281 45.402344 30.953125 44.617188 30.652344 C 44.335938 30.539062 44.320312 30.007812 44.601562 29.695312 C 44.796875 29.46875 44.769531 29.453125 44.125 29.523438 C 43.492188 29.582031 43.433594 29.550781 43.335938 29.253906 C 43.28125 29.066406 43.085938 28.46875 42.886719 27.9375 C 42.4375 26.753906 42.535156 26.570312 43.421875 26.96875 C 44.40625 27.425781 44.839844 27.367188 45.429688 26.683594 C 45.9375 26.070312 46.679688 24.628906 46.609375 24.382812 C 46.582031 24.300781 46.257812 24.613281 45.878906 25.070312 C 45.515625 25.527344 45.023438 25.984375 44.785156 26.082031 C 44.292969 26.296875 43.324219 26.324219 43.210938 26.140625 C 43.167969 26.082031 42.945312 25.984375 42.734375 25.941406 C 42.3125 25.855469 42.144531 25.554688 42.144531 24.871094 C 42.144531 24.527344 42.285156 24.46875 42.523438 24.710938 C 42.789062 24.984375 44.152344 25.042969 44.628906 24.785156 C 45.164062 24.511719 45.9375 23.257812 46.355469 22 C 46.679688 21 46.652344 20.699219 46.273438 21.445312 C 45.851562 22.273438 45.078125 23.269531 44.558594 23.628906 C 44.164062 23.898438 43.855469 23.984375 43.253906 23.984375 C 42.285156 23.984375 41.863281 23.613281 41.761719 22.671875 C 41.707031 22.15625 41.75 21.972656 42.042969 21.628906 C 42.632812 20.902344 43.125 20.101562 43.125 19.859375 C 43.113281 19.730469 43 19.859375 42.859375 20.128906 C 42.523438 20.773438 41.160156 22.085938 40.570312 22.34375 C 40.316406 22.441406 39.417969 22.570312 38.5625 22.628906 C 37.28125 22.714844 36.960938 22.6875 36.734375 22.5 C 36.496094 22.328125 36.480469 22.242188 36.621094 22.027344 C 36.890625 21.628906 37.183594 20.945312 37.605469 19.660156 C 37.972656 18.558594 38 18.34375 37.984375 16.105469 C 37.984375 14.632812 37.914062 13.648438 37.832031 13.535156 C 37.746094 13.433594 37.519531 12.863281 37.308594 12.277344 C 36.988281 11.308594 36.960938 11.023438 36.988281 9.136719 L 37 7.066406 L 36.507812 6.28125 C 36.230469 5.839844 35.625 5.152344 35.175781 4.738281 C 34.234375 3.882812 34.277344 3.710938 35.484375 3.710938 C 35.976562 3.710938 36.257812 3.785156 36.425781 3.953125 Z M 10.015625 13.132812 L 10.746094 13.132812 L 10.394531 13.421875 C 9.933594 13.792969 9.1875 13.792969 8.992188 13.433594 C 8.792969 13.050781 8.808594 12.949219 9.074219 13.050781 C 9.203125 13.089844 9.621094 13.132812 10.015625 13.132812 Z M 10.15625 15.976562 C 10.382812 16.0625 10.71875 16.132812 10.902344 16.132812 C 11.363281 16.132812 11.308594 16.503906 10.789062 16.890625 C 10.226562 17.316406 9.230469 17.289062 8.34375 16.816406 C 7.839844 16.5625 7.640625 16.359375 7.613281 16.105469 C 7.570312 15.761719 7.585938 15.761719 8.667969 15.777344 C 9.269531 15.789062 9.945312 15.875 10.15625 15.976562 Z M 49.449219 22.613281 C 49.449219 23.015625 49.335938 23.199219 48.859375 23.613281 C 48.027344 24.339844 47.917969 24.300781 48.085938 23.300781 C 48.253906 22.285156 48.378906 22.128906 48.96875 22.128906 C 49.417969 22.128906 49.449219 22.15625 49.449219 22.613281 Z M 24.230469 24.554688 C 24.230469 25.011719 24.160156 25.097656 23.53125 25.441406 C 22.671875 25.925781 21.421875 25.953125 21.15625 25.511719 C 21.027344 25.285156 21.070312 25.183594 21.464844 24.871094 C 22.125 24.339844 23.011719 24 23.671875 24.027344 C 24.21875 24.054688 24.230469 24.070312 24.230469 24.554688 Z M 49.730469 25.113281 C 49.730469 25.269531 49.769531 25.484375 49.8125 25.613281 C 49.898438 25.855469 49.25 26.183594 48.394531 26.355469 L 47.902344 26.441406 L 47.902344 25.710938 C 47.902344 25.183594 47.945312 25.011719 48.085938 25.070312 C 48.183594 25.097656 48.519531 25.070312 48.816406 25 C 49.644531 24.8125 49.730469 24.8125 49.730469 25.113281 Z M 22.265625 25.984375 C 22.8125 25.984375 23.359375 25.898438 23.601562 25.769531 C 24.050781 25.527344 24.191406 25.625 24.0625 26.113281 C 23.964844 26.527344 23.320312 26.839844 22.390625 26.941406 C 21.113281 27.082031 21.492188 27.324219 22.839844 27.226562 C 24.035156 27.140625 24.050781 27.140625 23.964844 27.453125 C 23.921875 27.625 23.882812 27.867188 23.882812 27.980469 C 23.882812 28.480469 22.152344 29.125 20.820312 29.125 C 19.878906 29.125 19.878906 29.46875 20.820312 29.523438 C 21.394531 29.566406 23.050781 29.28125 23.640625 29.054688 C 24.007812 28.894531 23.953125 29.609375 23.445312 31.550781 C 22.871094 33.707031 22.757812 36.390625 23.136719 38.734375 C 23.375 40.273438 23.375 40.289062 23.082031 40.800781 C 22.839844 41.230469 22.660156 41.359375 22.109375 41.515625 C 21.367188 41.714844 20.609375 41.660156 20.285156 41.386719 C 20.046875 41.1875 20.03125 40.375 20.257812 40.144531 C 20.382812 40.015625 20.382812 39.976562 20.214844 39.976562 C 19.863281 39.976562 19.667969 40.289062 19.667969 40.859375 C 19.667969 41.332031 19.625 41.402344 19.34375 41.402344 C 19.160156 41.402344 18.949219 41.332031 18.851562 41.230469 C 18.597656 40.972656 18.640625 40.386719 18.921875 40.175781 C 19.0625 40.074219 19.132812 39.960938 19.078125 39.902344 C 18.921875 39.746094 18.261719 40.503906 18.261719 40.832031 C 18.261719 41.246094 17.238281 41.246094 16.941406 40.816406 C 16.757812 40.546875 16.773438 40.472656 17.011719 40.058594 C 17.152344 39.804688 17.699219 39.304688 18.21875 38.933594 C 18.769531 38.5625 19.289062 38.074219 19.429688 37.789062 C 19.707031 37.261719 19.707031 37.363281 19.398438 33.835938 C 19.316406 32.9375 19.21875 31.195312 19.160156 29.980469 L 19.078125 27.769531 L 19.582031 27.195312 C 19.863281 26.882812 20.089844 26.570312 20.089844 26.511719 C 20.089844 26.441406 20.230469 26.210938 20.410156 25.984375 C 20.691406 25.613281 20.75 25.597656 21.027344 25.785156 C 21.210938 25.898438 21.71875 25.984375 22.265625 25.984375 Z M 50.136719 27.511719 C 50.21875 27.8125 50.289062 28.140625 50.289062 28.226562 C 50.289062 28.652344 48.492188 29.136719 48.210938 28.796875 C 48.128906 28.710938 48.027344 28.382812 47.972656 28.082031 C 47.875 27.597656 47.902344 27.554688 48.199219 27.539062 C 48.378906 27.539062 48.816406 27.425781 49.167969 27.269531 C 50.007812 26.925781 49.980469 26.910156 50.136719 27.511719 Z M 47.480469 29.839844 C 47.636719 29.925781 47.691406 30.195312 47.664062 30.710938 C 47.648438 31.578125 47.257812 32.066406 46.160156 32.621094 C 45.332031 33.035156 45.09375 33.066406 44.488281 32.75 C 43.703125 32.335938 43.40625 31.980469 43.40625 31.394531 C 43.40625 30.738281 43.6875 30.464844 44.125 30.695312 C 44.769531 31.050781 46.636719 30.808594 46.636719 30.367188 C 46.636719 30.195312 47.058594 29.695312 47.1875 29.695312 C 47.226562 29.695312 47.367188 29.765625 47.480469 29.839844 Z M 50.277344 30.9375 C 50.878906 31.136719 51.050781 31.25 51.21875 31.664062 C 51.527344 32.449219 51.527344 32.449219 50.289062 32.621094 L 49.660156 32.707031 L 49.265625 31.851562 C 48.703125 30.636719 48.886719 30.480469 50.277344 30.9375 Z M 47.691406 33.222656 C 47.648438 33.480469 47.410156 33.921875 47.171875 34.207031 C 46.667969 34.777344 46.695312 34.90625 47.257812 34.605469 C 47.480469 34.492188 47.691406 34.421875 47.71875 34.449219 C 47.746094 34.476562 47.578125 35.234375 47.355469 36.132812 C 46.933594 37.875 46.457031 39.148438 46.132812 39.417969 C 46.007812 39.519531 45.9375 39.875 45.9375 40.445312 C 45.9375 41.730469 45.515625 42.101562 44.65625 41.585938 C 44.265625 41.359375 44.25 41.359375 44.054688 41.617188 C 43.730469 42.074219 43.492188 41.703125 43.605469 40.917969 C 43.675781 40.460938 43.785156 40.246094 43.984375 40.1875 C 44.390625 40.046875 44.8125 40.246094 44.8125 40.558594 C 44.8125 40.761719 44.894531 40.832031 45.050781 40.800781 C 45.429688 40.730469 45.414062 40.429688 45.023438 40.03125 C 44.753906 39.761719 44.574219 39.6875 44.347656 39.761719 C 43.855469 39.917969 42.507812 39.832031 42.3125 39.632812 C 42.15625 39.476562 42.171875 39.390625 42.453125 39.175781 C 42.832031 38.875 43.6875 37.375 43.6875 37.019531 C 43.6875 36.847656 43.828125 36.820312 44.574219 36.90625 L 45.445312 36.992188 L 45.023438 36.691406 C 44.796875 36.535156 44.390625 36.304688 44.136719 36.191406 C 43.773438 36.035156 43.675781 35.90625 43.714844 35.664062 C 43.746094 35.390625 43.84375 35.335938 44.179688 35.363281 L 44.601562 35.390625 L 44.152344 35.105469 C 43.632812 34.761719 43.546875 34.421875 43.96875 34.308594 C 44.234375 34.234375 44.234375 34.222656 43.898438 33.808594 C 43.503906 33.335938 43.433594 32.835938 43.757812 32.835938 C 43.882812 32.835938 44.222656 32.964844 44.53125 33.121094 C 45.527344 33.636719 46.132812 33.492188 47.128906 32.535156 L 47.691406 31.980469 L 47.734375 32.363281 C 47.761719 32.566406 47.746094 32.949219 47.691406 33.222656 Z M 55.109375 33.109375 C 55.417969 33.222656 55.488281 33.351562 55.488281 33.722656 C 55.488281 34.433594 55.332031 34.578125 54.828125 34.40625 C 54.390625 34.25 53.519531 33.292969 53.519531 32.964844 C 53.519531 32.777344 54.476562 32.851562 55.109375 33.109375 Z M 53.210938 34.761719 C 53.242188 35.378906 53.199219 35.933594 53.113281 36.019531 C 52.917969 36.21875 51.414062 35.304688 51.414062 34.992188 C 51.414062 34.847656 51.640625 34.433594 51.90625 34.078125 C 52.339844 33.507812 52.441406 33.4375 52.777344 33.535156 C 53.15625 33.636719 53.171875 33.679688 53.210938 34.761719 Z M 42.058594 39.917969 C 42.253906 39.988281 42.253906 40.03125 42.074219 40.304688 C 41.960938 40.472656 41.863281 40.746094 41.863281 40.902344 C 41.863281 41.132812 41.917969 41.101562 42.144531 40.730469 C 42.410156 40.289062 42.929688 40.03125 43.292969 40.144531 C 43.503906 40.21875 43.464844 41.515625 43.238281 41.789062 C 43.015625 42.058594 42.5625 42.015625 42.550781 41.714844 C 42.550781 41.574219 42.507812 41.546875 42.464844 41.644531 C 42.382812 41.886719 42.042969 41.886719 41.902344 41.644531 C 41.847656 41.558594 41.566406 41.472656 41.300781 41.472656 C 40.824219 41.472656 40.808594 41.460938 40.824219 40.929688 C 40.851562 40.089844 41.382812 39.660156 42.058594 39.917969 Z M 7.78125 41.628906 C 7.980469 42.144531 7.867188 42.515625 7.5 42.601562 C 7.121094 42.703125 6.742188 42.5 6.742188 42.203125 C 6.742188 41.617188 7.601562 41.144531 7.78125 41.628906 Z M 7.78125 41.628906 "/>
<path style=" stroke:none;fill-rule:nonzero;fill:rgb(0%,0%,0%);fill-opacity:1;" d="M 9.480469 2.957031 C 8.878906 3.027344 8.625 3.167969 8.765625 3.398438 C 8.820312 3.496094 9.117188 3.46875 9.59375 3.339844 C 9.988281 3.242188 10.507812 3.140625 10.730469 3.140625 C 10.957031 3.140625 11.113281 3.113281 11.082031 3.082031 C 10.972656 2.984375 10.03125 2.914062 9.480469 2.957031 Z M 9.480469 2.957031 "/>
<path style=" stroke:none;fill-rule:nonzero;fill:rgb(0%,0%,0%);fill-opacity:1;" d="M 5.480469 3.898438 C 5.480469 3.996094 5.605469 4.082031 5.773438 4.097656 C 6.433594 4.15625 6.699219 4.839844 6.179688 5.167969 C 5.871094 5.367188 5.816406 5.566406 6.039062 5.566406 C 6.277344 5.566406 6.882812 4.839844 6.882812 4.570312 C 6.882812 4.441406 6.742188 4.199219 6.558594 4.027344 C 6.210938 3.683594 5.480469 3.597656 5.480469 3.898438 Z M 5.480469 3.898438 "/>
<path style=" stroke:none;fill-rule:nonzero;fill:rgb(0%,0%,0%);fill-opacity:1;" d="M 9.003906 3.910156 C 8.300781 4.097656 7.066406 5.238281 7.320312 5.496094 C 7.445312 5.625 7.65625 5.425781 8.371094 4.453125 C 8.484375 4.3125 8.863281 4.226562 9.609375 4.199219 C 10.71875 4.15625 11.011719 4.070312 10.886719 3.839844 C 10.773438 3.667969 9.761719 3.699219 9.003906 3.910156 Z M 9.003906 3.910156 "/>
<path style=" stroke:none;fill-rule:nonzero;fill:rgb(0%,0%,0%);fill-opacity:1;" d="M 15.269531 4.15625 C 14.933594 4.441406 14.75 4.710938 14.75 4.941406 C 14.75 5.125 14.804688 5.28125 14.875 5.28125 C 14.945312 5.28125 15.144531 5.640625 15.324219 6.066406 C 15.648438 6.882812 15.945312 7.023438 15.734375 6.265625 C 15.621094 5.910156 15.675781 5.726562 16.027344 5.152344 C 16.816406 3.824219 16.367188 3.226562 15.269531 4.15625 Z M 16.15625 4.382812 C 16.15625 4.453125 15.984375 4.683594 15.789062 4.910156 C 15.496094 5.253906 15.394531 5.28125 15.296875 5.125 C 15.214844 4.984375 15.285156 4.824219 15.535156 4.597656 C 15.886719 4.28125 16.15625 4.183594 16.15625 4.382812 Z M 16.15625 4.382812 "/>
<path style=" stroke:none;fill-rule:nonzero;fill:rgb(0%,0%,0%);fill-opacity:1;" d="M 9.453125 4.78125 C 9.203125 4.898438 8.992188 5.054688 8.992188 5.140625 C 8.992188 5.3125 9.03125 5.3125 9.441406 5.152344 C 9.621094 5.082031 9.933594 4.984375 10.15625 4.941406 C 10.367188 4.882812 10.535156 4.78125 10.535156 4.710938 C 10.535156 4.511719 9.988281 4.539062 9.453125 4.78125 Z M 9.453125 4.78125 "/>
<path style=" stroke:none;fill-rule:nonzero;fill:rgb(0%,0%,0%);fill-opacity:1;" d="M 11.492188 4.667969 C 11.113281 4.769531 11.195312 4.96875 11.574219 4.898438 C 11.773438 4.855469 12.109375 4.941406 12.347656 5.082031 C 12.8125 5.355469 13.105469 5.253906 12.769531 4.941406 C 12.542969 4.726562 11.855469 4.582031 11.492188 4.667969 Z M 11.492188 4.667969 "/>
<path style=" stroke:none;fill-rule:nonzero;fill:rgb(0%,0%,0%);fill-opacity:1;" d="M 9.171875 5.523438 C 9.074219 5.554688 8.992188 5.695312 8.992188 5.8125 C 8.992188 5.953125 9.074219 5.996094 9.214844 5.9375 C 9.339844 5.894531 9.59375 5.8125 9.777344 5.769531 C 9.960938 5.726562 10.113281 5.625 10.113281 5.554688 C 10.113281 5.425781 9.46875 5.398438 9.171875 5.523438 Z M 9.171875 5.523438 "/>
<path style=" stroke:none;fill-rule:nonzero;fill:rgb(0%,0%,0%);fill-opacity:1;" d="M 11.730469 5.582031 C 11.601562 5.78125 11.632812 5.796875 12.25 5.894531 C 12.855469 5.980469 13.023438 5.882812 12.671875 5.625 C 12.375 5.398438 11.855469 5.367188 11.730469 5.582031 Z M 11.730469 5.582031 "/>
<path style=" stroke:none;fill-rule:nonzero;fill:rgb(0%,0%,0%);fill-opacity:1;" d="M 10.507812 5.882812 C 10.140625 6.011719 9.847656 6.496094 10.03125 6.667969 C 10.070312 6.722656 10.226562 6.652344 10.367188 6.523438 C 10.675781 6.238281 11.183594 6.210938 11.28125 6.453125 C 11.308594 6.554688 11.378906 6.597656 11.433594 6.539062 C 11.574219 6.425781 11.308594 5.910156 11.070312 5.824219 C 10.972656 5.78125 10.71875 5.8125 10.507812 5.882812 Z M 10.507812 5.882812 "/>
<path style=" stroke:none;fill-rule:nonzero;fill:rgb(0%,0%,0%);fill-opacity:1;" d="M 14.425781 5.796875 C 14.328125 5.910156 14.625 6.566406 14.777344 6.566406 C 14.960938 6.566406 14.90625 6.054688 14.707031 5.867188 C 14.59375 5.78125 14.46875 5.753906 14.425781 5.796875 Z M 14.425781 5.796875 "/>
<path style=" stroke:none;fill-rule:nonzero;fill:rgb(0%,0%,0%);fill-opacity:1;" d="M 7.949219 6.210938 C 7.824219 6.554688 7.851562 7.136719 7.992188 7.136719 C 8.089844 7.136719 8.21875 6.722656 8.300781 6.183594 C 8.332031 5.96875 8.035156 5.996094 7.949219 6.210938 Z M 7.949219 6.210938 "/>
<path style=" stroke:none;fill-rule:nonzero;fill:rgb(0%,0%,0%);fill-opacity:1;" d="M 11.882812 6.238281 C 11.84375 6.296875 11.828125 6.523438 11.882812 6.765625 C 11.925781 7.050781 11.855469 7.453125 11.671875 7.894531 C 11.351562 8.652344 11.292969 9.136719 11.53125 9.136719 C 11.601562 9.136719 11.644531 9.078125 11.601562 9.023438 C 11.5625 8.953125 11.6875 8.566406 11.882812 8.152344 C 12.066406 7.738281 12.222656 7.152344 12.222656 6.851562 C 12.222656 6.308594 12.082031 6.054688 11.882812 6.238281 Z M 11.882812 6.238281 "/>
<path style=" stroke:none;fill-rule:nonzero;fill:rgb(0%,0%,0%);fill-opacity:1;" d="M 5.898438 6.636719 C 5.898438 6.839844 6.027344 7.253906 6.167969 7.550781 C 6.347656 7.910156 6.390625 8.152344 6.308594 8.292969 C 6.140625 8.582031 6.152344 9.09375 6.335938 9.222656 C 6.449219 9.292969 6.476562 9.207031 6.433594 8.953125 C 6.390625 8.75 6.40625 8.507812 6.460938 8.421875 C 6.617188 8.179688 7.023438 8.421875 7.023438 8.765625 C 7.023438 8.9375 7.09375 9.152344 7.191406 9.25 C 7.417969 9.480469 8.105469 9.464844 8.230469 9.25 C 8.300781 9.136719 8.371094 9.222656 8.441406 9.480469 C 8.570312 9.949219 8.332031 10.523438 7.710938 11.191406 C 7.5 11.4375 7.347656 11.664062 7.390625 11.707031 C 7.429688 11.734375 7.742188 11.476562 8.089844 11.105469 C 8.695312 10.464844 8.710938 10.40625 8.710938 9.523438 C 8.710938 8.367188 8.402344 7.996094 7.402344 7.996094 C 6.6875 7.996094 6.476562 7.78125 6.335938 6.867188 C 6.238281 6.265625 5.898438 6.097656 5.898438 6.636719 Z M 7.980469 8.679688 C 8.019531 8.910156 7.949219 8.996094 7.753906 8.996094 C 7.417969 8.996094 7.261719 8.664062 7.488281 8.4375 C 7.710938 8.210938 7.921875 8.324219 7.980469 8.679688 Z M 7.980469 8.679688 "/>
<path style=" stroke:none;fill-rule:nonzero;fill:rgb(0%,0%,0%);fill-opacity:1;" d="M 9.269531 6.636719 C 9.074219 6.882812 9.203125 8.707031 9.425781 8.707031 C 9.566406 8.707031 9.59375 8.550781 9.621094 7.308594 C 9.636719 6.394531 9.566406 6.265625 9.269531 6.636719 Z M 9.269531 6.636719 "/>
<path style=" stroke:none;fill-rule:nonzero;fill:rgb(0%,0%,0%);fill-opacity:1;" d="M 13.203125 6.910156 C 13.203125 7.195312 13.273438 7.425781 13.34375 7.425781 C 13.429688 7.425781 13.484375 7.265625 13.484375 7.066406 C 13.484375 6.867188 13.484375 6.667969 13.5 6.609375 C 13.5 6.554688 13.445312 6.480469 13.359375 6.453125 C 13.261719 6.425781 13.203125 6.609375 13.203125 6.910156 Z M 13.203125 6.910156 "/>
<path style=" stroke:none;fill-rule:nonzero;fill:rgb(0%,0%,0%);fill-opacity:1;" d="M 14.960938 7.496094 C 14.917969 7.609375 14.863281 7.808594 14.820312 7.921875 C 14.707031 8.308594 14.117188 8.4375 13.472656 8.210938 C 12.742188 7.9375 12.433594 8.09375 12.066406 8.894531 C 11.730469 9.652344 11.730469 10.292969 12.054688 10.722656 C 12.191406 10.90625 12.390625 11.265625 12.488281 11.519531 C 12.613281 11.851562 12.769531 11.992188 13.035156 12.019531 C 13.289062 12.050781 13.429688 12.164062 13.484375 12.421875 C 13.527344 12.621094 13.710938 12.835938 13.878906 12.921875 C 14.160156 13.050781 14.1875 13.148438 14.160156 13.707031 L 14.117188 14.347656 L 13.527344 14.390625 C 12.855469 14.433594 12.785156 14.5625 13.203125 14.992188 C 13.515625 15.304688 14.046875 15.375 14.046875 15.089844 C 14.046875 14.992188 14.230469 14.675781 14.46875 14.390625 C 14.976562 13.777344 15.171875 13.261719 15.085938 12.890625 C 15.03125 12.691406 15.128906 12.535156 15.367188 12.378906 C 15.972656 11.964844 16.125 11.464844 16.210938 9.636719 C 16.253906 8.480469 16.238281 8.136719 16.15625 8.566406 C 16.097656 8.921875 15.914062 9.566406 15.746094 9.992188 C 15.59375 10.421875 15.464844 10.949219 15.453125 11.164062 C 15.453125 11.378906 15.394531 11.707031 15.3125 11.90625 C 15.128906 12.40625 14.316406 12.433594 13.992188 11.964844 C 13.78125 11.664062 13.792969 11.621094 14.105469 11.351562 C 14.523438 10.992188 14.75 10.535156 14.734375 10.109375 C 14.722656 9.792969 14.722656 9.792969 14.566406 10.164062 C 14.46875 10.363281 14.273438 10.664062 14.132812 10.835938 L 13.863281 11.136719 L 13.457031 10.777344 C 13.21875 10.578125 12.867188 10.421875 12.628906 10.421875 C 12.261719 10.421875 12.222656 10.378906 12.222656 9.9375 C 12.222656 9.449219 12.234375 9.4375 12.714844 9.523438 C 13.261719 9.609375 13.625 9.394531 13.625 8.980469 C 13.625 8.824219 13.722656 8.707031 13.851562 8.707031 C 14.035156 8.707031 14.003906 8.824219 13.695312 9.367188 C 13.445312 9.792969 13.359375 10.066406 13.457031 10.164062 C 13.597656 10.308594 14.046875 9.679688 14.316406 8.953125 C 14.398438 8.738281 14.554688 8.566406 14.652344 8.566406 C 14.917969 8.566406 15.269531 8.136719 15.382812 7.667969 C 15.464844 7.367188 15.4375 7.28125 15.253906 7.28125 C 15.128906 7.28125 14.988281 7.382812 14.960938 7.496094 Z M 13.316406 8.808594 C 13.359375 9.066406 13.304688 9.136719 13.023438 9.136719 C 12.601562 9.136719 12.515625 9.050781 12.601562 8.695312 C 12.714844 8.292969 13.261719 8.394531 13.316406 8.808594 Z M 13.09375 11.023438 C 13.203125 11.121094 13.34375 11.320312 13.402344 11.464844 C 13.472656 11.679688 13.414062 11.722656 13.09375 11.679688 C 12.796875 11.648438 12.699219 11.550781 12.671875 11.234375 C 12.613281 10.820312 12.753906 10.75 13.09375 11.023438 Z M 13.09375 11.023438 "/>
<path style=" stroke:none;fill-rule:nonzero;fill:rgb(0%,0%,0%);fill-opacity:1;" d="M 5.859375 9.523438 C 5.675781 9.695312 5.757812 10.207031 6.054688 10.765625 C 6.292969 11.207031 6.320312 11.394531 6.195312 11.664062 C 6.097656 11.878906 6.097656 11.992188 6.195312 11.992188 C 6.265625 11.992188 6.363281 11.890625 6.40625 11.777344 C 6.460938 11.664062 6.628906 11.5625 6.800781 11.5625 C 7.078125 11.550781 7.078125 11.550781 6.839844 11.40625 C 6.519531 11.207031 6.179688 10.421875 6.179688 9.851562 C 6.179688 9.4375 6.054688 9.308594 5.859375 9.523438 Z M 5.859375 9.523438 "/>
<path style=" stroke:none;fill-rule:nonzero;fill:rgb(0%,0%,0%);fill-opacity:1;" d="M 7.417969 10.152344 C 6.941406 10.394531 6.699219 10.707031 6.980469 10.707031 C 7.304688 10.707031 8.289062 10.207031 8.289062 10.050781 C 8.289062 9.78125 8.035156 9.808594 7.417969 10.152344 Z M 7.417969 10.152344 "/>
<path style=" stroke:none;fill-rule:nonzero;fill:rgb(0%,0%,0%);fill-opacity:1;" d="M 12.53125 13.589844 C 12.613281 13.847656 12.921875 13.890625 12.921875 13.648438 C 12.921875 13.519531 12.824219 13.421875 12.699219 13.421875 C 12.574219 13.421875 12.503906 13.492188 12.53125 13.589844 Z M 12.53125 13.589844 "/>
<path style=" stroke:none;fill-rule:nonzero;fill:rgb(0%,0%,0%);fill-opacity:1;" d="M 6.53125 13.933594 L 6.109375 14.148438 L 6.53125 14.035156 C 6.769531 13.976562 7.277344 13.917969 7.683594 13.917969 C 8.078125 13.917969 8.371094 13.875 8.332031 13.804688 C 8.230469 13.632812 6.980469 13.71875 6.53125 13.933594 Z M 6.53125 13.933594 "/>
<path style=" stroke:none;fill-rule:nonzero;fill:rgb(0%,0%,0%);fill-opacity:1;" d="M 11.800781 13.847656 C 11.800781 13.917969 11.898438 13.992188 12.011719 13.992188 C 12.125 13.992188 12.222656 13.917969 12.222656 13.847656 C 12.222656 13.761719 12.125 13.707031 12.011719 13.707031 C 11.898438 13.707031 11.800781 13.761719 11.800781 13.847656 Z M 11.800781 13.847656 "/>
<path style=" stroke:none;fill-rule:nonzero;fill:rgb(0%,0%,0%);fill-opacity:1;" d="M 11.378906 14.417969 C 11.378906 14.492188 11.449219 14.5625 11.519531 14.5625 C 11.601562 14.5625 11.660156 14.492188 11.660156 14.417969 C 11.660156 14.332031 11.601562 14.277344 11.519531 14.277344 C 11.449219 14.277344 11.378906 14.332031 11.378906 14.417969 Z M 11.378906 14.417969 "/>
<path style=" stroke:none;fill-rule:nonzero;fill:rgb(0%,0%,0%);fill-opacity:1;" d="M 12.082031 14.492188 C 12.082031 14.605469 12.152344 14.703125 12.222656 14.703125 C 12.304688 14.703125 12.363281 14.605469 12.363281 14.492188 C 12.363281 14.375 12.304688 14.277344 12.222656 14.277344 C 12.152344 14.277344 12.082031 14.375 12.082031 14.492188 Z M 12.082031 14.492188 "/>
<path style=" stroke:none;fill-rule:nonzero;fill:rgb(0%,0%,0%);fill-opacity:1;" d="M 6.785156 14.5625 C 6.601562 14.632812 6.460938 14.734375 6.460938 14.777344 C 6.460938 14.832031 6.53125 14.820312 6.617188 14.761719 C 6.699219 14.71875 7.007812 14.675781 7.289062 14.675781 C 7.570312 14.675781 7.894531 14.632812 8.007812 14.546875 C 8.289062 14.375 7.207031 14.390625 6.785156 14.5625 Z M 6.785156 14.5625 "/>
<path style=" stroke:none;fill-rule:nonzero;fill:rgb(0%,0%,0%);fill-opacity:1;" d="M 21.351562 7.425781 C 21.351562 7.824219 21.15625 8.394531 20.71875 9.265625 C 20.367188 9.964844 20.058594 10.75 20.003906 11.007812 C 19.863281 11.878906 19.625 12.621094 19.203125 13.378906 C 18.878906 13.976562 18.835938 14.132812 19.007812 14.132812 C 19.289062 14.132812 19.667969 13.589844 19.667969 13.191406 C 19.667969 13.019531 19.835938 12.71875 20.03125 12.507812 C 20.355469 12.191406 20.398438 12.0625 20.3125 11.578125 C 20.242188 11.105469 20.296875 10.90625 20.578125 10.480469 C 21.085938 9.722656 21.605469 8.550781 21.773438 7.796875 C 21.929688 7.082031 21.871094 6.851562 21.550781 6.851562 C 21.410156 6.851562 21.351562 7.023438 21.351562 7.425781 Z M 21.351562 7.425781 "/>
<path style=" stroke:none;fill-rule:nonzero;fill:rgb(0%,0%,0%);fill-opacity:1;" d="M 24.105469 12.207031 C 24.050781 12.519531 23.867188 13.007812 23.710938 13.277344 C 23.488281 13.664062 23.417969 14.078125 23.390625 15.132812 C 23.347656 16.53125 23.011719 17.832031 22.503906 18.558594 C 22.363281 18.757812 22.140625 19.160156 21.984375 19.460938 C 21.828125 19.757812 21.378906 20.359375 20.972656 20.800781 C 20.285156 21.570312 19.976562 22.128906 20.242188 22.128906 C 20.296875 22.128906 20.425781 21.984375 20.523438 21.828125 C 20.609375 21.65625 21.042969 21.074219 21.492188 20.542969 C 22.308594 19.558594 23.082031 18.117188 23.53125 16.773438 C 23.699219 16.261719 23.742188 15.847656 23.671875 15.246094 C 23.585938 14.589844 23.640625 14.25 23.953125 13.347656 C 24.148438 12.75 24.300781 12.121094 24.273438 11.949219 C 24.230469 11.734375 24.191406 11.808594 24.105469 12.207031 Z M 24.105469 12.207031 "/>
<path style=" stroke:none;fill-rule:nonzero;fill:rgb(0%,0%,0%);fill-opacity:1;" d="M 21.199219 17.945312 C 20.734375 18.503906 20.621094 18.703125 20.734375 18.703125 C 20.804688 18.703125 21 18.472656 21.183594 18.203125 C 21.519531 17.675781 21.519531 17.546875 21.199219 17.945312 Z M 21.199219 17.945312 "/>
<path style=" stroke:none;fill-rule:nonzero;fill:rgb(0%,0%,0%);fill-opacity:1;" d="M 40.246094 8.980469 C 40.203125 9.152344 40.203125 9.351562 40.261719 9.4375 C 40.316406 9.523438 40.414062 9.835938 40.484375 10.121094 C 40.554688 10.40625 40.710938 11.023438 40.835938 11.492188 C 41.132812 12.691406 41.214844 13.777344 41.03125 14.289062 C 40.90625 14.648438 40.933594 14.890625 41.117188 15.433594 C 41.257812 15.820312 41.425781 16.117188 41.511719 16.089844 C 41.761719 16.003906 41.566406 11.933594 41.285156 11.394531 C 41.214844 11.265625 41.160156 10.980469 41.160156 10.777344 C 41.160156 10.277344 40.753906 9.039062 40.527344 8.851562 C 40.386719 8.738281 40.316406 8.765625 40.246094 8.980469 Z M 40.246094 8.980469 "/>
<path style=" stroke:none;fill-rule:nonzero;fill:rgb(0%,0%,0%);fill-opacity:1;" d="M 38.589844 10.195312 C 38.546875 10.292969 38.589844 10.507812 38.703125 10.648438 C 38.925781 10.992188 39.277344 12.035156 39.628906 13.40625 C 39.9375 14.648438 39.964844 15.875 39.699219 17.0625 C 39.585938 17.53125 39.515625 18.246094 39.515625 18.644531 C 39.515625 19.171875 39.445312 19.488281 39.222656 19.800781 C 38.714844 20.53125 38.871094 20.84375 39.445312 20.230469 C 40.121094 19.5 40.570312 17.332031 40.429688 15.417969 C 40.289062 13.449219 40.164062 12.421875 40.023438 12.335938 C 39.953125 12.292969 39.894531 12.078125 39.894531 11.863281 C 39.894531 11.351562 39.402344 10.320312 39.066406 10.136719 C 38.714844 9.949219 38.671875 9.949219 38.589844 10.195312 Z M 38.589844 10.195312 "/>
<path style=" stroke:none;fill-rule:nonzero;fill:rgb(0%,0%,0%);fill-opacity:1;" d="M 43.210938 10.664062 C 43.152344 10.90625 43.167969 11.363281 43.253906 11.664062 C 43.335938 11.964844 43.40625 12.40625 43.40625 12.664062 C 43.40625 13.078125 43.660156 13.492188 43.703125 13.148438 C 43.714844 13.0625 43.730469 12.90625 43.746094 12.804688 C 43.773438 12.636719 43.644531 11.878906 43.433594 10.777344 L 43.324219 10.207031 Z M 43.210938 10.664062 "/>
<path style=" stroke:none;fill-rule:nonzero;fill:rgb(0%,0%,0%);fill-opacity:1;" d="M 42.199219 13.089844 C 42.4375 14.0625 42.453125 15.804688 42.242188 16.773438 C 41.847656 18.53125 41.761719 18.789062 41.355469 19.53125 C 41.046875 20.101562 40.992188 20.300781 41.117188 20.429688 C 41.734375 21.058594 42.691406 17.988281 42.703125 15.433594 C 42.703125 14.261719 42.4375 12.707031 42.242188 12.707031 C 42.171875 12.707031 42.15625 12.878906 42.199219 13.089844 Z M 42.199219 13.089844 "/>
<path style=" stroke:none;fill-rule:nonzero;fill:rgb(0%,0%,0%);fill-opacity:1;" d="M 47.988281 15.347656 C 47.15625 19.902344 47.1875 19.730469 47.328125 19.628906 C 47.453125 19.558594 47.550781 19.144531 47.902344 17.203125 C 47.988281 16.730469 48.113281 15.988281 48.199219 15.5625 C 48.269531 15.132812 48.324219 14.589844 48.296875 14.347656 C 48.269531 14.078125 48.15625 14.449219 47.988281 15.347656 Z M 47.988281 15.347656 "/>
<path style=" stroke:none;fill-rule:nonzero;fill:rgb(0%,0%,0%);fill-opacity:1;" d="M 43.816406 14.917969 C 43.773438 14.992188 43.730469 15.605469 43.730469 16.273438 C 43.714844 17.332031 43.730469 17.417969 43.84375 16.917969 C 43.984375 16.332031 43.953125 14.664062 43.816406 14.917969 Z M 43.816406 14.917969 "/>
<path style=" stroke:none;fill-rule:nonzero;fill:rgb(0%,0%,0%);fill-opacity:1;" d="M 43.421875 18.230469 C 43.335938 18.617188 43.222656 19.074219 43.183594 19.273438 C 43.125 19.472656 43.125 19.585938 43.183594 19.542969 C 43.351562 19.386719 43.816406 17.558594 43.6875 17.558594 C 43.617188 17.558594 43.503906 17.859375 43.421875 18.230469 Z M 43.421875 18.230469 "/>
<path style=" stroke:none;fill-rule:nonzero;fill:rgb(0%,0%,0%);fill-opacity:1;" d="M 44.53125 34.40625 C 44.644531 34.476562 44.839844 34.550781 44.953125 34.550781 C 45.136719 34.550781 45.136719 34.535156 44.953125 34.40625 C 44.839844 34.335938 44.644531 34.265625 44.53125 34.265625 C 44.347656 34.265625 44.347656 34.277344 44.53125 34.40625 Z M 44.53125 34.40625 "/>
<path style=" stroke:none;fill-rule:nonzero;fill:rgb(0%,0%,0%);fill-opacity:1;" d="M 31.847656 3.953125 C 31.285156 4.039062 31.453125 4.324219 32.195312 4.539062 C 32.773438 4.695312 32.886719 4.8125 33.265625 5.539062 C 33.8125 6.597656 34.699219 9.421875 34.699219 10.179688 C 34.710938 10.351562 34.808594 10.648438 34.921875 10.851562 C 35.117188 11.179688 35.132812 11.0625 35.0625 9.421875 C 35.019531 8.410156 34.910156 7.324219 34.78125 6.910156 C 34.457031 5.839844 32.914062 3.824219 32.464844 3.867188 C 32.335938 3.882812 32.058594 3.925781 31.847656 3.953125 Z M 31.847656 3.953125 "/>
<path style=" stroke:none;fill-rule:nonzero;fill:rgb(0%,0%,0%);fill-opacity:1;" d="M 30.203125 4.210938 C 30.203125 4.238281 30.582031 4.640625 31.046875 5.125 C 32.183594 6.308594 32.703125 7.382812 33.167969 9.464844 C 33.320312 10.195312 33.308594 10.464844 33.097656 11.550781 C 32.886719 12.605469 32.871094 12.964844 32.996094 13.847656 C 33.097656 14.417969 33.195312 14.933594 33.222656 14.992188 C 33.25 15.046875 33.222656 15.488281 33.136719 15.976562 C 33.054688 16.53125 33.054688 16.945312 33.136719 17.101562 C 33.25 17.304688 33.277344 17.273438 33.363281 16.917969 C 33.417969 16.675781 33.519531 16.304688 33.585938 16.074219 C 33.742188 15.546875 33.757812 14.949219 33.585938 14.761719 C 33.417969 14.578125 33.308594 12.578125 33.460938 12.476562 C 33.53125 12.433594 33.6875 12.476562 33.796875 12.578125 C 33.980469 12.734375 34.007812 13.050781 33.953125 14.5625 C 33.855469 16.847656 33.671875 17.832031 33.027344 19.558594 C 32.855469 19.988281 32.730469 20.5 32.730469 20.6875 C 32.730469 21.34375 33.011719 20.757812 33.558594 18.917969 C 33.65625 18.601562 33.9375 17.929688 34.179688 17.433594 C 34.585938 16.605469 34.628906 16.347656 34.667969 15.019531 C 34.699219 14.207031 34.65625 13.378906 34.570312 13.164062 C 34.5 12.949219 34.417969 12.550781 34.386719 12.277344 C 34.375 12.007812 34.316406 11.707031 34.261719 11.636719 C 34.207031 11.550781 34.066406 10.980469 33.925781 10.351562 C 33.796875 9.722656 33.628906 9.078125 33.558594 8.921875 C 33.476562 8.765625 33.40625 8.496094 33.390625 8.308594 C 33.390625 8.136719 33.320312 7.996094 33.265625 7.996094 C 33.207031 7.996094 33.152344 7.910156 33.152344 7.796875 C 33.152344 7.695312 32.925781 7.152344 32.648438 6.597656 C 32.097656 5.46875 31.117188 4.355469 30.554688 4.253906 C 30.355469 4.210938 30.203125 4.199219 30.203125 4.210938 Z M 30.203125 4.210938 "/>
<path style=" stroke:none;fill-rule:nonzero;fill:rgb(0%,0%,0%);fill-opacity:1;" d="M 28.558594 4.382812 C 28.304688 4.410156 28.09375 4.496094 28.09375 4.570312 C 28.09375 4.625 28.363281 4.839844 28.699219 5.039062 C 29.808594 5.710938 30.441406 6.738281 30.582031 8.050781 C 30.625 8.496094 30.722656 8.851562 30.777344 8.851562 C 31.117188 8.851562 31.410156 7.394531 31.199219 6.824219 C 31.046875 6.425781 29.261719 4.269531 29.105469 4.3125 C 29.050781 4.3125 28.796875 4.355469 28.558594 4.382812 Z M 28.558594 4.382812 "/>
<path style=" stroke:none;fill-rule:nonzero;fill:rgb(0%,0%,0%);fill-opacity:1;" d="M 30.257812 10.449219 C 30.554688 13.589844 30.539062 13.734375 30.019531 15.519531 C 29.585938 16.988281 29.414062 17.675781 29.273438 18.558594 C 29.246094 18.675781 29.164062 19.046875 29.066406 19.386719 C 28.65625 20.886719 29.65625 19.886719 30.355469 18.089844 C 30.847656 16.847656 31.015625 15.988281 31.117188 14.191406 C 31.199219 12.734375 31.1875 12.335938 30.976562 11.707031 C 30.835938 11.292969 30.707031 10.664062 30.695312 10.292969 C 30.664062 9.808594 30.582031 9.621094 30.414062 9.59375 C 30.203125 9.550781 30.1875 9.652344 30.257812 10.449219 Z M 30.257812 10.449219 "/>
<path style=" stroke:none;fill-rule:nonzero;fill:rgb(0%,0%,0%);fill-opacity:1;" d="M 27.96875 14.035156 C 27.882812 14.519531 27.742188 15.203125 27.644531 15.5625 C 27.40625 16.589844 25.707031 20.257812 25.03125 21.242188 C 24.695312 21.742188 24.457031 22.1875 24.5 22.230469 C 24.652344 22.386719 25.285156 21.488281 26.3125 19.601562 C 27.605469 17.21875 28.375 15.160156 28.375 14.0625 C 28.375 12.992188 28.164062 12.964844 27.96875 14.035156 Z M 27.96875 14.035156 "/>
<path style=" stroke:none;fill-rule:nonzero;fill:rgb(0%,0%,0%);fill-opacity:1;" d="M 28.023438 19.402344 C 27.984375 19.558594 27.730469 19.875 27.464844 20.101562 C 27.011719 20.515625 26.550781 21.242188 26.550781 21.558594 C 26.550781 21.644531 26.382812 21.957031 26.183594 22.273438 C 25.988281 22.570312 25.847656 22.898438 25.875 22.972656 C 25.933594 23.171875 26.84375 22.714844 26.984375 22.414062 C 27.042969 22.300781 27.378906 21.6875 27.730469 21.042969 C 28.082031 20.414062 28.375 19.714844 28.375 19.515625 C 28.375 19.074219 28.152344 19.003906 28.023438 19.402344 Z M 28.023438 19.402344 "/>
</g>
</svg>
